<mxfile host="65bd71144e">
    <diagram name="Page-1" id="Y9ntbs2BD4-VTBr9amhl">
        <mxGraphModel dx="1136" dy="607" grid="1" gridSize="10" guides="1" tooltips="1" connect="1" arrows="1" fold="1" page="1" pageScale="1" pageWidth="850" pageHeight="1100" math="0" shadow="0">
            <root>
                <mxCell id="0"/>
                <mxCell id="1" parent="0"/>
                <mxCell id="MNt8giYhe8Dud4CSugxd-3" value="" style="edgeStyle=orthogonalEdgeStyle;rounded=0;orthogonalLoop=1;jettySize=auto;html=1;entryX=0;entryY=0.5;entryDx=0;entryDy=0;" parent="1" source="MNt8giYhe8Dud4CSugxd-1" target="MNt8giYhe8Dud4CSugxd-2" edge="1">
                    <mxGeometry relative="1" as="geometry"/>
                </mxCell>
                <mxCell id="MNt8giYhe8Dud4CSugxd-1" value="Start" style="rounded=1;whiteSpace=wrap;html=1;" parent="1" vertex="1">
                    <mxGeometry x="110" y="40" width="90" height="40" as="geometry"/>
                </mxCell>
                <mxCell id="MNt8giYhe8Dud4CSugxd-15" value="" style="edgeStyle=orthogonalEdgeStyle;rounded=0;orthogonalLoop=1;jettySize=auto;html=1;exitX=1;exitY=0.5;exitDx=0;exitDy=0;" parent="1" source="3" target="MNt8giYhe8Dud4CSugxd-4" edge="1">
                    <mxGeometry relative="1" as="geometry">
                        <Array as="points">
                            <mxPoint x="760" y="80"/>
                            <mxPoint x="760" y="150"/>
                            <mxPoint x="155" y="150"/>
                        </Array>
                    </mxGeometry>
                </mxCell>
                <mxCell id="4" value="" style="edgeStyle=none;html=1;" edge="1" parent="1" source="MNt8giYhe8Dud4CSugxd-2" target="2">
                    <mxGeometry relative="1" as="geometry"/>
                </mxCell>
                <mxCell id="MNt8giYhe8Dud4CSugxd-2" value="&lt;div&gt;&quot;Input a number: &quot;&lt;/div&gt;&lt;div&gt;save as numb1&lt;/div&gt;" style="shape=parallelogram;perimeter=parallelogramPerimeter;whiteSpace=wrap;html=1;fixedSize=1;" parent="1" vertex="1">
                    <mxGeometry x="230" y="50" width="170" height="60" as="geometry"/>
                </mxCell>
                <mxCell id="MNt8giYhe8Dud4CSugxd-6" value="" style="edgeStyle=orthogonalEdgeStyle;rounded=0;orthogonalLoop=1;jettySize=auto;html=1;" parent="1" source="MNt8giYhe8Dud4CSugxd-4" target="MNt8giYhe8Dud4CSugxd-5" edge="1">
                    <mxGeometry relative="1" as="geometry"/>
                </mxCell>
                <mxCell id="MNt8giYhe8Dud4CSugxd-36" value="No" style="edgeLabel;html=1;align=center;verticalAlign=middle;resizable=0;points=[];" parent="MNt8giYhe8Dud4CSugxd-6" vertex="1" connectable="0">
                    <mxGeometry x="-0.7333" y="-1" relative="1" as="geometry">
                        <mxPoint x="9" y="-1" as="offset"/>
                    </mxGeometry>
                </mxCell>
                <mxCell id="MNt8giYhe8Dud4CSugxd-17" value="" style="edgeStyle=orthogonalEdgeStyle;rounded=0;orthogonalLoop=1;jettySize=auto;html=1;" parent="1" source="MNt8giYhe8Dud4CSugxd-4" target="MNt8giYhe8Dud4CSugxd-16" edge="1">
                    <mxGeometry relative="1" as="geometry"/>
                </mxCell>
                <mxCell id="MNt8giYhe8Dud4CSugxd-37" value="Yes" style="edgeLabel;html=1;align=center;verticalAlign=middle;resizable=0;points=[];" parent="MNt8giYhe8Dud4CSugxd-17" vertex="1" connectable="0">
                    <mxGeometry x="0.24" y="-1" relative="1" as="geometry">
                        <mxPoint as="offset"/>
                    </mxGeometry>
                </mxCell>
                <mxCell id="MNt8giYhe8Dud4CSugxd-4" value="operator=+" style="rhombus;whiteSpace=wrap;html=1;" parent="1" vertex="1">
                    <mxGeometry x="115" y="190" width="80" height="80" as="geometry"/>
                </mxCell>
                <mxCell id="MNt8giYhe8Dud4CSugxd-8" value="No" style="edgeStyle=orthogonalEdgeStyle;rounded=0;orthogonalLoop=1;jettySize=auto;html=1;" parent="1" source="MNt8giYhe8Dud4CSugxd-5" target="MNt8giYhe8Dud4CSugxd-7" edge="1">
                    <mxGeometry x="0.1579" relative="1" as="geometry">
                        <mxPoint as="offset"/>
                    </mxGeometry>
                </mxCell>
                <mxCell id="MNt8giYhe8Dud4CSugxd-21" value="" style="edgeStyle=orthogonalEdgeStyle;rounded=0;orthogonalLoop=1;jettySize=auto;html=1;" parent="1" source="MNt8giYhe8Dud4CSugxd-5" target="MNt8giYhe8Dud4CSugxd-18" edge="1">
                    <mxGeometry relative="1" as="geometry"/>
                </mxCell>
                <mxCell id="MNt8giYhe8Dud4CSugxd-38" value="Yes" style="edgeLabel;html=1;align=center;verticalAlign=middle;resizable=0;points=[];" parent="MNt8giYhe8Dud4CSugxd-21" vertex="1" connectable="0">
                    <mxGeometry x="-0.15" y="-1" relative="1" as="geometry">
                        <mxPoint as="offset"/>
                    </mxGeometry>
                </mxCell>
                <mxCell id="MNt8giYhe8Dud4CSugxd-5" value="operator=-" style="rhombus;whiteSpace=wrap;html=1;" parent="1" vertex="1">
                    <mxGeometry x="227.5" y="190" width="80" height="80" as="geometry"/>
                </mxCell>
                <mxCell id="MNt8giYhe8Dud4CSugxd-10" value="" style="edgeStyle=orthogonalEdgeStyle;rounded=0;orthogonalLoop=1;jettySize=auto;html=1;" parent="1" source="MNt8giYhe8Dud4CSugxd-7" target="MNt8giYhe8Dud4CSugxd-9" edge="1">
                    <mxGeometry relative="1" as="geometry"/>
                </mxCell>
                <mxCell id="MNt8giYhe8Dud4CSugxd-35" value="No" style="edgeLabel;html=1;align=center;verticalAlign=middle;resizable=0;points=[];" parent="MNt8giYhe8Dud4CSugxd-10" vertex="1" connectable="0">
                    <mxGeometry x="0.3091" relative="1" as="geometry">
                        <mxPoint x="-3" as="offset"/>
                    </mxGeometry>
                </mxCell>
                <mxCell id="MNt8giYhe8Dud4CSugxd-22" value="" style="edgeStyle=orthogonalEdgeStyle;rounded=0;orthogonalLoop=1;jettySize=auto;html=1;entryX=0.5;entryY=0;entryDx=0;entryDy=0;" parent="1" source="MNt8giYhe8Dud4CSugxd-7" target="MNt8giYhe8Dud4CSugxd-19" edge="1">
                    <mxGeometry relative="1" as="geometry"/>
                </mxCell>
                <mxCell id="MNt8giYhe8Dud4CSugxd-39" value="Yes" style="edgeLabel;html=1;align=center;verticalAlign=middle;resizable=0;points=[];" parent="MNt8giYhe8Dud4CSugxd-22" vertex="1" connectable="0">
                    <mxGeometry x="-0.4" y="4" relative="1" as="geometry">
                        <mxPoint as="offset"/>
                    </mxGeometry>
                </mxCell>
                <mxCell id="MNt8giYhe8Dud4CSugxd-7" value="operator=*" style="rhombus;whiteSpace=wrap;html=1;" parent="1" vertex="1">
                    <mxGeometry x="340" y="190" width="80" height="80" as="geometry"/>
                </mxCell>
                <mxCell id="MNt8giYhe8Dud4CSugxd-12" value="" style="edgeStyle=orthogonalEdgeStyle;rounded=0;orthogonalLoop=1;jettySize=auto;html=1;" parent="1" source="MNt8giYhe8Dud4CSugxd-9" target="MNt8giYhe8Dud4CSugxd-11" edge="1">
                    <mxGeometry relative="1" as="geometry"/>
                </mxCell>
                <mxCell id="MNt8giYhe8Dud4CSugxd-34" value="No" style="edgeLabel;html=1;align=center;verticalAlign=middle;resizable=0;points=[];" parent="MNt8giYhe8Dud4CSugxd-12" vertex="1" connectable="0">
                    <mxGeometry x="-0.08" y="-3" relative="1" as="geometry">
                        <mxPoint as="offset"/>
                    </mxGeometry>
                </mxCell>
                <mxCell id="MNt8giYhe8Dud4CSugxd-23" value="" style="edgeStyle=orthogonalEdgeStyle;rounded=0;orthogonalLoop=1;jettySize=auto;html=1;entryX=0.5;entryY=0;entryDx=0;entryDy=0;" parent="1" source="MNt8giYhe8Dud4CSugxd-9" target="MNt8giYhe8Dud4CSugxd-24" edge="1">
                    <mxGeometry relative="1" as="geometry"/>
                </mxCell>
                <mxCell id="MNt8giYhe8Dud4CSugxd-30" value="Yes" style="edgeLabel;html=1;align=center;verticalAlign=middle;resizable=0;points=[];" parent="MNt8giYhe8Dud4CSugxd-23" vertex="1" connectable="0">
                    <mxGeometry x="0.1143" y="1" relative="1" as="geometry">
                        <mxPoint as="offset"/>
                    </mxGeometry>
                </mxCell>
                <mxCell id="MNt8giYhe8Dud4CSugxd-9" value="operator=/" style="rhombus;whiteSpace=wrap;html=1;" parent="1" vertex="1">
                    <mxGeometry x="457.5" y="190" width="80" height="80" as="geometry"/>
                </mxCell>
                <mxCell id="MNt8giYhe8Dud4CSugxd-14" value="" style="edgeStyle=orthogonalEdgeStyle;rounded=0;orthogonalLoop=1;jettySize=auto;html=1;" parent="1" source="MNt8giYhe8Dud4CSugxd-11" target="MNt8giYhe8Dud4CSugxd-13" edge="1">
                    <mxGeometry relative="1" as="geometry">
                        <Array as="points">
                            <mxPoint x="630" y="540"/>
                        </Array>
                    </mxGeometry>
                </mxCell>
                <mxCell id="MNt8giYhe8Dud4CSugxd-11" value="&quot;Error&quot;" style="shape=parallelogram;perimeter=parallelogramPerimeter;whiteSpace=wrap;html=1;fixedSize=1;" parent="1" vertex="1">
                    <mxGeometry x="570" y="200" width="120" height="60" as="geometry"/>
                </mxCell>
                <mxCell id="MNt8giYhe8Dud4CSugxd-13" value="End" style="rounded=1;whiteSpace=wrap;html=1;" parent="1" vertex="1">
                    <mxGeometry x="110" y="520" width="120" height="60" as="geometry"/>
                </mxCell>
                <mxCell id="MNt8giYhe8Dud4CSugxd-41" value="" style="edgeStyle=orthogonalEdgeStyle;rounded=0;orthogonalLoop=1;jettySize=auto;html=1;" parent="1" source="MNt8giYhe8Dud4CSugxd-16" target="MNt8giYhe8Dud4CSugxd-40" edge="1">
                    <mxGeometry relative="1" as="geometry"/>
                </mxCell>
                <mxCell id="MNt8giYhe8Dud4CSugxd-16" value="result=numb1+numb2" style="whiteSpace=wrap;html=1;" parent="1" vertex="1">
                    <mxGeometry x="82.5" y="300" width="145" height="40" as="geometry"/>
                </mxCell>
                <mxCell id="MNt8giYhe8Dud4CSugxd-43" value="" style="edgeStyle=orthogonalEdgeStyle;rounded=0;orthogonalLoop=1;jettySize=auto;html=1;entryX=1;entryY=0.25;entryDx=0;entryDy=0;" parent="1" source="MNt8giYhe8Dud4CSugxd-18" target="MNt8giYhe8Dud4CSugxd-40" edge="1">
                    <mxGeometry relative="1" as="geometry">
                        <mxPoint x="267.5" y="470" as="targetPoint"/>
                        <Array as="points">
                            <mxPoint x="268" y="446"/>
                        </Array>
                    </mxGeometry>
                </mxCell>
                <mxCell id="MNt8giYhe8Dud4CSugxd-18" value="result=numb1-numb2" style="whiteSpace=wrap;html=1;" parent="1" vertex="1">
                    <mxGeometry x="195" y="360" width="145" height="40" as="geometry"/>
                </mxCell>
                <mxCell id="MNt8giYhe8Dud4CSugxd-45" value="" style="edgeStyle=orthogonalEdgeStyle;rounded=0;orthogonalLoop=1;jettySize=auto;html=1;entryX=1;entryY=0.5;entryDx=0;entryDy=0;" parent="1" source="MNt8giYhe8Dud4CSugxd-19" target="MNt8giYhe8Dud4CSugxd-40" edge="1">
                    <mxGeometry relative="1" as="geometry">
                        <mxPoint x="380" y="420" as="targetPoint"/>
                        <Array as="points">
                            <mxPoint x="380" y="460"/>
                        </Array>
                    </mxGeometry>
                </mxCell>
                <mxCell id="MNt8giYhe8Dud4CSugxd-19" value="result=numb1*numb2" style="whiteSpace=wrap;html=1;" parent="1" vertex="1">
                    <mxGeometry x="307.5" y="310" width="145" height="40" as="geometry"/>
                </mxCell>
                <mxCell id="MNt8giYhe8Dud4CSugxd-25" value="" style="edgeStyle=orthogonalEdgeStyle;rounded=0;orthogonalLoop=1;jettySize=auto;html=1;exitX=0.5;exitY=1;exitDx=0;exitDy=0;entryX=0.5;entryY=0;entryDx=0;entryDy=0;" parent="1" source="MNt8giYhe8Dud4CSugxd-24" target="MNt8giYhe8Dud4CSugxd-20" edge="1">
                    <mxGeometry relative="1" as="geometry">
                        <mxPoint x="537.55" y="379.99999999999994" as="sourcePoint"/>
                        <mxPoint x="457.4800000000001" y="497.96000000000004" as="targetPoint"/>
                    </mxGeometry>
                </mxCell>
                <mxCell id="MNt8giYhe8Dud4CSugxd-28" value="" style="edgeStyle=orthogonalEdgeStyle;rounded=0;orthogonalLoop=1;jettySize=auto;html=1;" parent="1" source="MNt8giYhe8Dud4CSugxd-20" target="MNt8giYhe8Dud4CSugxd-24" edge="1">
                    <mxGeometry relative="1" as="geometry"/>
                </mxCell>
                <mxCell id="MNt8giYhe8Dud4CSugxd-29" value="No" style="edgeLabel;html=1;align=center;verticalAlign=middle;resizable=0;points=[];" parent="MNt8giYhe8Dud4CSugxd-28" vertex="1" connectable="0">
                    <mxGeometry x="0.6" y="-2" relative="1" as="geometry">
                        <mxPoint as="offset"/>
                    </mxGeometry>
                </mxCell>
                <mxCell id="MNt8giYhe8Dud4CSugxd-47" value="" style="edgeStyle=orthogonalEdgeStyle;rounded=0;orthogonalLoop=1;jettySize=auto;html=1;entryX=1;entryY=0.75;entryDx=0;entryDy=0;exitX=0.5;exitY=1;exitDx=0;exitDy=0;" parent="1" source="MNt8giYhe8Dud4CSugxd-20" target="MNt8giYhe8Dud4CSugxd-40" edge="1">
                    <mxGeometry relative="1" as="geometry">
                        <mxPoint x="543.57" y="444.28999999999996" as="sourcePoint"/>
                        <mxPoint x="216.42714285714288" y="475.7185714285713" as="targetPoint"/>
                        <Array as="points">
                            <mxPoint x="530" y="472"/>
                        </Array>
                    </mxGeometry>
                </mxCell>
                <mxCell id="MNt8giYhe8Dud4CSugxd-20" value="result=numb1/numb2" style="whiteSpace=wrap;html=1;" parent="1" vertex="1">
                    <mxGeometry x="457.5" y="410" width="145" height="40" as="geometry"/>
                </mxCell>
                <mxCell id="MNt8giYhe8Dud4CSugxd-32" value="" style="edgeStyle=orthogonalEdgeStyle;rounded=0;orthogonalLoop=1;jettySize=auto;html=1;entryX=0.25;entryY=1;entryDx=0;entryDy=0;" parent="1" source="MNt8giYhe8Dud4CSugxd-24" target="MNt8giYhe8Dud4CSugxd-11" edge="1">
                    <mxGeometry relative="1" as="geometry">
                        <mxPoint x="630" y="340" as="targetPoint"/>
                        <Array as="points">
                            <mxPoint x="600" y="340"/>
                        </Array>
                    </mxGeometry>
                </mxCell>
                <mxCell id="MNt8giYhe8Dud4CSugxd-33" value="Yes" style="edgeLabel;html=1;align=center;verticalAlign=middle;resizable=0;points=[];" parent="MNt8giYhe8Dud4CSugxd-32" vertex="1" connectable="0">
                    <mxGeometry x="-0.7273" relative="1" as="geometry">
                        <mxPoint as="offset"/>
                    </mxGeometry>
                </mxCell>
                <mxCell id="MNt8giYhe8Dud4CSugxd-24" value="numb2=0" style="rhombus;whiteSpace=wrap;html=1;" parent="1" vertex="1">
                    <mxGeometry x="490" y="300" width="80" height="80" as="geometry"/>
                </mxCell>
                <mxCell id="MNt8giYhe8Dud4CSugxd-48" value="" style="edgeStyle=orthogonalEdgeStyle;rounded=0;orthogonalLoop=1;jettySize=auto;html=1;" parent="1" source="MNt8giYhe8Dud4CSugxd-40" target="MNt8giYhe8Dud4CSugxd-13" edge="1">
                    <mxGeometry relative="1" as="geometry"/>
                </mxCell>
                <mxCell id="MNt8giYhe8Dud4CSugxd-40" value="Display result" style="shape=parallelogram;perimeter=parallelogramPerimeter;whiteSpace=wrap;html=1;fixedSize=1;" parent="1" vertex="1">
                    <mxGeometry x="110" y="430" width="120" height="60" as="geometry"/>
                </mxCell>
                <mxCell id="5" value="" style="edgeStyle=none;html=1;" edge="1" parent="1" source="2" target="3">
                    <mxGeometry relative="1" as="geometry"/>
                </mxCell>
                <mxCell id="2" value="&lt;div&gt;&quot;Input another number: &quot;&lt;/div&gt;&lt;div&gt;save as numb2&lt;/div&gt;" style="shape=parallelogram;perimeter=parallelogramPerimeter;whiteSpace=wrap;html=1;fixedSize=1;" vertex="1" parent="1">
                    <mxGeometry x="410" y="50" width="170" height="60" as="geometry"/>
                </mxCell>
                <mxCell id="3" value="&lt;div&gt;&quot;Input operator(+,-,*,/): &quot;&lt;/div&gt;&lt;div&gt;save as operator&lt;/div&gt;" style="shape=parallelogram;perimeter=parallelogramPerimeter;whiteSpace=wrap;html=1;fixedSize=1;" vertex="1" parent="1">
                    <mxGeometry x="590" y="50" width="167.5" height="60" as="geometry"/>
                </mxCell>
            </root>
        </mxGraphModel>
    </diagram>
</mxfile>